<?xml version="1.0" standalone="no"?><!DOCTYPE svg PUBLIC "-//W3C//DTD SVG 1.1//EN" "http://www.w3.org/Graphics/SVG/1.1/DTD/svg11.dtd"><svg t="1607765584449" class="icon" viewBox="0 0 1024 1024" version="1.1" xmlns="http://www.w3.org/2000/svg" p-id="8922" xmlns:xlink="http://www.w3.org/1999/xlink" width="200" height="200"><defs><style type="text/css"></style></defs><path d="M705.834667 744.832L469.333333 508.330667V170.666667a42.666667 42.666667 0 0 1 85.333334 0v302.336l211.498666 211.498666 93.44-93.44a21.333333 21.333333 0 0 1 36.394667 15.104V832a21.333333 21.333333 0 0 1-21.333333 21.333333h-225.834667a21.333333 21.333333 0 0 1-15.061333-36.437333l72.064-72.064z" fill="#4988fe" p-id="8923"></path><path d="M309.12 731.52l85.376 85.376a21.333333 21.333333 0 0 1-15.061333 36.437333H150.570667a21.333333 21.333333 0 0 1-21.333334-21.333333v-228.864a21.333333 21.333333 0 0 1 36.394667-15.104l82.944 82.944 129.194667-109.354667 55.125333 65.152-123.776 104.746667z" fill="#4988fe" opacity=".3" p-id="8924"></path></svg>